<?xml version="1.0" encoding="UTF-8"?>
<!DOCTYPE svg PUBLIC "-//W3C//DTD SVG 1.1//EN" "http://www.w3.org/Graphics/SVG/1.1/DTD/svg11.dtd">
<!-- Creator: CorelDRAW -->
<svg xmlns="http://www.w3.org/2000/svg" xml:space="preserve" width="895px" height="244px" version="1.1" style="shape-rendering:geometricPrecision; text-rendering:geometricPrecision; image-rendering:optimizeQuality; fill-rule:evenodd; clip-rule:evenodd"
viewBox="0 0 3417.49 932.97"
 xmlns:xlink="http://www.w3.org/1999/xlink"
 xmlns:xodm="http://www.corel.com/coreldraw/odm/2003">
 <defs>
  <style type="text/css">
   <![CDATA[
    .str0 {stroke:black;stroke-width:7.63;stroke-miterlimit:22.9256}
    .fil0 {fill:white}
    .fil2 {fill:black;fill-rule:nonzero}
    .fil1 {fill:black;fill-rule:nonzero}
   ]]>
  </style>
 </defs>
 <g id="Capa_x0020_1">
  <metadata id="CorelCorpID_0Corel-Layer"/>
  <g>
   <path class="fil0" d="M397.89 31.97l2824.23 0c113.3,0 184.39,92.69 157.99,205.99l-106.51 457.05c-26.4,113.3 -140.7,206 -254,206l-2824.23 0c-113.3,0 -184.39,-92.7 -157.99,-206l106.51 -457.05c26.4,-113.3 140.7,-205.99 254,-205.99z"/>
   <path id="_1" class="fil1" d="M3222.13 63.94l-2824.23 0 -0.02 -63.94 2824.23 0 0 0 0.02 63.94zm189.09 181.28l-62.22 -14.53 0 0 1.87 -9.03 1.39 -8.85 0.91 -8.65 0.45 -8.45 0 -8.27 -0.42 -8.04 -0.84 -7.82 -1.23 -7.59 -1.64 -7.36 -1.99 -7.13 -2.38 -6.89 -2.71 -6.65 -3.07 -6.38 -3.4 -6.14 -3.73 -5.88 -4.05 -5.62 -4.36 -5.35 -4.68 -5.08 -4.98 -4.8 -5.28 -4.51 -5.59 -4.23 -5.89 -3.93 -6.18 -3.61 -6.49 -3.29 -6.78 -2.96 -7.09 -2.61 -7.38 -2.26 -7.68 -1.89 -7.97 -1.49 -8.27 -1.1 -8.56 -0.67 -8.85 -0.22 -0.02 -63.94 12.14 0.32 11.92 0.92 11.67 1.54 11.42 2.14 11.13 2.74 10.83 3.32 10.51 3.87 10.19 4.45 9.82 4.99 9.45 5.51 9.04 6.03 8.62 6.52 8.2 7 7.74 7.45 7.27 7.9 6.78 8.32 6.27 8.71 5.76 9.08 5.23 9.44 4.69 9.77 4.12 10.07 3.57 10.37 2.98 10.63 2.4 10.87 1.82 11.09 1.21 11.3 0.6 11.47 -0.01 11.63 -0.63 11.78 -1.25 11.9 -1.87 12 -2.51 12.09 0 0zm-168.73 442.52l106.51 -457.05 62.22 14.53 -106.51 457.06 -62.22 -14.54zm-222.88 245.23l-0.02 -63.93 0 0 9.01 -0.23 9.06 -0.68 9.06 -1.13 9.08 -1.56 9.07 -2.01 9.05 -2.42 9 -2.83 8.94 -3.25 8.86 -3.64 8.78 -4.02 8.65 -4.4 8.53 -4.77 8.37 -5.12 8.2 -5.45 8.01 -5.78 7.81 -6.09 7.59 -6.4 7.34 -6.67 7.08 -6.94 6.8 -7.19 6.51 -7.44 6.21 -7.67 5.88 -7.87 5.54 -8.07 5.19 -8.24 4.82 -8.41 4.43 -8.54 4.05 -8.7 3.64 -8.79 3.21 -8.91 2.78 -8.99 2.35 -9.09 62.22 14.54 -3.11 12.04 -3.68 11.85 -4.2 11.65 -4.73 11.44 -5.2 11.2 -5.69 10.96 -6.14 10.72 -6.57 10.44 -6.99 10.17 -7.38 9.89 -7.77 9.58 -8.13 9.29 -8.47 8.97 -8.81 8.63 -9.12 8.29 -9.42 7.94 -9.7 7.57 -9.98 7.19 -10.24 6.81 -10.47 6.39 -10.7 5.99 -10.92 5.55 -11.11 5.1 -11.29 4.64 -11.48 4.16 -11.63 3.66 -11.76 3.15 -11.9 2.62 -12.01 2.07 -12.1 1.51 -12.18 0.91 -12.22 0.31 0 0zm-2824.25 -63.93l2824.23 0 0.02 63.93 -2824.23 0 0 0 -0.02 -63.93zm-189.09 -181.3l62.22 14.54 0 0 -1.88 9.03 -1.38 8.85 -0.91 8.65 -0.45 8.46 -0.01 8.26 0.43 8.03 0.84 7.83 1.23 7.59 1.63 7.36 2.01 7.14 2.36 6.89 2.72 6.64 3.07 6.39 3.4 6.14 3.73 5.88 4.04 5.61 4.37 5.36 4.67 5.08 4.98 4.79 5.29 4.52 5.59 4.23 5.88 3.92 6.19 3.61 6.49 3.29 6.78 2.96 7.09 2.62 7.38 2.26 7.68 1.89 7.97 1.49 8.27 1.1 8.56 0.66 8.85 0.23 0.02 63.93 -12.14 -0.31 -11.92 -0.93 -11.67 -1.54 -11.42 -2.14 -11.14 -2.74 -10.82 -3.31 -10.51 -3.88 -10.19 -4.45 -9.82 -4.98 -9.44 -5.51 -9.05 -6.03 -8.63 -6.53 -8.18 -6.99 -7.75 -7.46 -7.27 -7.9 -6.78 -8.31 -6.28 -8.72 -5.75 -9.08 -5.23 -9.43 -4.69 -9.77 -4.13 -10.08 -3.56 -10.38 -2.99 -10.62 -2.39 -10.87 -1.82 -11.09 -1.21 -11.3 -0.6 -11.47 0.01 -11.64 0.63 -11.77 1.25 -11.91 1.87 -11.99 2.51 -12.1 0 0zm168.73 -442.52l-106.51 457.06 -62.22 -14.54 106.51 -457.05 0 0 62.22 14.53zm222.88 -245.22l0.02 63.94 0 0 -9.02 0.23 -9.05 0.68 -9.07 1.12 -9.07 1.57 -9.07 2 -9.05 2.43 -9 2.83 -8.94 3.24 -8.87 3.64 -8.77 4.03 -8.65 4.4 -8.53 4.77 -8.38 5.11 -8.19 5.45 -8.01 5.78 -7.81 6.1 -7.58 6.39 -7.35 6.67 -7.08 6.94 -6.81 7.2 -6.51 7.45 -6.2 7.65 -5.88 7.86 -5.54 8.08 -5.19 8.24 -4.82 8.4 -4.43 8.55 -4.05 8.69 -3.64 8.8 -3.21 8.91 -2.78 8.99 -2.35 9.08 -62.22 -14.53 3.11 -12.04 3.68 -11.85 4.2 -11.65 4.72 -11.44 5.21 -11.2 5.69 -10.96 6.14 -10.71 6.57 -10.45 6.99 -10.16 7.38 -9.9 7.77 -9.59 8.13 -9.28 8.47 -8.96 8.81 -8.63 9.11 -8.29 9.43 -7.94 9.7 -7.57 9.97 -7.2 10.25 -6.81 10.47 -6.39 10.69 -5.98 10.92 -5.55 11.11 -5.1 11.3 -4.64 11.48 -4.16 11.62 -3.67 11.77 -3.14 11.9 -2.63 12 -2.07 12.11 -1.5 12.17 -0.92 12.23 -0.31 0 0z"/>
  </g>
  <path class="fil2 str0" d="M1194.09 663.62l-59.33 -113.12c-5.91,-11.27 -11.54,-20.56 -17.08,-28.07 -5.45,-7.6 -11.17,-13.61 -16.99,-18.11 -5.82,-4.42 -12.11,-7.7 -18.78,-9.58 -6.75,-1.97 -14.17,-2.91 -22.43,-2.91l-43.37 0 0 171.79 -36.61 0 0 -394.27 113.49 0c14.83,0 29.2,2.16 43.09,6.58 13.79,4.41 26.09,10.88 36.89,19.52 10.79,8.63 19.52,19.43 26,32.38 6.48,13.05 9.76,28.17 9.76,45.34 0,13.9 -2.06,26.76 -6.28,38.49 -4.23,11.64 -10.24,22.06 -18.03,31.17 -7.79,9.01 -17.18,16.71 -28.25,23 -11.17,6.38 -23.66,11.07 -37.55,14.17l0 1.13c5.35,2.16 10.14,5.07 14.55,8.54 4.41,3.48 8.63,7.7 12.76,12.68 4.13,4.87 8.17,10.6 12.21,16.98 4.03,6.48 8.26,13.8 12.58,22.06l66.18 122.23 -42.81 0zm-177.98 -360.47l0 155.45 65.33 0c13.24,0 25.26,-1.88 36.24,-5.73 10.98,-3.85 20.37,-9.38 28.16,-16.52 7.79,-7.04 13.8,-15.68 18.12,-25.72 4.31,-10.04 6.47,-21.4 6.47,-33.98 0,-22.91 -7.32,-40.84 -22.06,-53.88 -14.73,-13.05 -36.04,-19.62 -63.92,-19.62l-68.34 0zm298.8 366.1c-7.33,0 -13.61,-2.54 -18.68,-7.7 -5.17,-5.07 -7.7,-11.36 -7.7,-18.68 0,-7.42 2.53,-13.8 7.51,-18.87 5.07,-5.16 11.36,-7.69 18.87,-7.69 3.66,0 7.04,0.65 10.23,2.06 3.19,1.41 6,3.19 8.35,5.44 2.44,2.35 4.32,5.07 5.82,8.36 1.41,3.38 2.16,6.94 2.16,10.7 0,3.66 -0.75,7.14 -2.16,10.32 -1.5,3.2 -3.38,6.02 -5.82,8.36 -2.35,2.34 -5.16,4.23 -8.35,5.63 -3.19,1.41 -6.57,2.07 -10.23,2.07zm225.47 -366.1l0 360.47 -36.61 0 0 -360.47 -113.77 0 0 -33.8 264.15 0 0 33.8 -113.77 0zm163.62 302.64c6.57,4.97 13.89,9.39 21.87,13.33 7.89,3.94 16.05,7.23 24.41,9.95 8.26,2.63 16.71,4.6 25.06,6.01 8.45,1.41 16.53,2.06 24.22,2.06 29.76,0 52.1,-5.72 66.94,-17.27 14.83,-11.55 22.24,-28.06 22.24,-49.66 0,-10.42 -1.78,-19.62 -5.26,-27.41 -3.47,-7.79 -8.82,-15.02 -16.14,-21.87 -7.42,-6.76 -16.62,-13.52 -27.79,-20.18 -11.17,-6.67 -24.4,-14.27 -39.61,-22.72 -16.8,-9.2 -31.26,-17.84 -43.28,-26 -12.01,-8.17 -21.78,-16.53 -29.38,-25.07 -7.6,-8.54 -13.23,-17.74 -16.8,-27.59 -3.57,-9.96 -5.35,-21.22 -5.35,-33.89 0,-15.96 3.38,-30.23 10.13,-42.9 6.86,-12.68 15.96,-23.47 27.51,-32.3 11.55,-8.91 25.07,-15.77 40.55,-20.55 15.49,-4.79 32.01,-7.13 49.57,-7.13 30.98,0 56.98,4.31 77.82,12.95l0 40.36c-23.28,-13.42 -50.51,-20.08 -81.86,-20.08 -11.73,0 -22.71,1.4 -33.14,4.22 -10.32,2.91 -19.33,7.04 -27.13,12.58 -7.79,5.54 -13.98,12.39 -18.39,20.56 -4.51,8.16 -6.76,17.64 -6.76,28.44 0,10.33 1.5,19.15 4.5,26.56 3.1,7.42 7.89,14.46 14.65,21.03 6.66,6.67 15.39,13.24 26.37,19.71 10.89,6.48 24.22,13.99 39.99,22.44 16.43,8.82 30.89,17.37 43.09,25.72 12.3,8.36 22.53,17.09 30.7,26.1 8.17,9.1 14.27,18.77 18.3,28.91 4.04,10.23 6.01,21.5 6.01,33.98 0,17.27 -3.19,32.39 -9.57,45.53 -6.48,13.14 -15.4,24.03 -26.94,32.67 -11.55,8.54 -25.26,15.11 -41.22,19.52 -15.96,4.42 -33.41,6.58 -52.47,6.58 -6.2,0 -13.61,-0.47 -22.25,-1.51 -8.63,-1.03 -17.27,-2.53 -26.1,-4.41 -8.82,-1.97 -17.17,-4.32 -25.15,-6.95 -7.98,-2.72 -14.36,-5.63 -19.34,-8.73l0 -42.99zm341.41 57.83l-36.61 0 0 -394.27 36.61 0 0 394.27zm392.57 -27.41c-40.55,22.81 -83.54,34.17 -128.89,34.17 -28.63,0 -54.35,-4.89 -77.16,-14.74 -22.71,-9.77 -42.15,-23.47 -58.1,-40.93 -15.96,-17.56 -28.26,-38.39 -36.8,-62.71 -8.54,-24.31 -12.77,-50.97 -12.77,-80.17 0,-19.24 2.07,-37.73 6.2,-55.57 4.13,-17.74 10.23,-34.45 18.21,-50.03 7.98,-15.59 17.74,-29.66 29.29,-42.34 11.64,-12.67 24.87,-23.56 39.8,-32.66 15.02,-9.2 31.54,-16.25 49.47,-21.22 18.02,-4.98 37.45,-7.41 58.2,-7.41 39.05,0 73.97,6.94 104.67,20.83l0 40.37c-33.8,-18.68 -70.13,-27.97 -109.08,-27.97 -24.13,0 -45.81,4.41 -65.34,13.23 -19.43,8.73 -36.05,20.84 -49.75,36.24 -13.61,15.39 -24.22,33.6 -31.83,54.63 -7.5,21.03 -11.35,43.74 -11.54,68.34 -0.19,24.4 3,46.93 9.48,67.49 6.57,20.65 16.24,38.49 29.1,53.51 12.86,15.02 28.73,26.75 47.59,35.2 18.97,8.45 40.84,12.67 65.62,12.67 33.42,0 62.43,-6.94 87.02,-20.93l0 -120.44 -89.55 0 0 -33.23 126.16 0 0 173.67z"/>
 </g>
</svg>
