<?xml version="1.0" encoding="UTF-8"?>
<!DOCTYPE svg PUBLIC "-//W3C//DTD SVG 1.1//EN" "http://www.w3.org/Graphics/SVG/1.1/DTD/svg11.dtd">
<!-- Creator: CorelDRAW -->
<svg xmlns="http://www.w3.org/2000/svg" xml:space="preserve" width="889px" height="244px" version="1.1" style="shape-rendering:geometricPrecision; text-rendering:geometricPrecision; image-rendering:optimizeQuality; fill-rule:evenodd; clip-rule:evenodd"
viewBox="0 0 464.33 127.58"
 xmlns:xlink="http://www.w3.org/1999/xlink"
 xmlns:xodm="http://www.corel.com/coreldraw/odm/2003">
 <defs>
  <style type="text/css">
   <![CDATA[
    .fil0 {fill:white}
    .fil2 {fill:black;fill-rule:nonzero}
    .fil1 {fill:black;fill-rule:nonzero}
   ]]>
  </style>
 </defs>
 <g id="Capa_x0020_1">
  <metadata id="CorelCorpID_0Corel-Layer"/>
  <g>
   <path class="fil0" d="M52.92 4.37l386.18 0c15.5,0 25.22,12.68 21.61,28.17l-14.57 62.5c-3.61,15.49 -19.24,28.16 -34.73,28.16l-386.18 0c-15.5,0 -25.22,-12.67 -21.61,-28.16l14.57 -62.5c3.61,-15.49 19.24,-28.17 34.73,-28.17z"/>
   <path id="_1" class="fil1" d="M439.1 8.74l-386.19 0 0.01 -8.74 386.19 0 0 0 -0.01 8.74zm24.32 25.25l-5.43 -2.9 0 0 0.24 -1.15 0.18 -1.12 0.11 -1.07 0.05 -1.04 0.01 -1.01 -0.06 -0.99 -0.1 -0.95 -0.15 -0.93 -0.2 -0.92 -0.25 -0.89 -0.31 -0.89 -0.35 -0.87 -0.41 -0.85 -0.47 -0.83 -0.51 -0.82 -0.58 -0.8 -0.63 -0.77 -0.68 -0.74 -0.74 -0.71 -0.79 -0.68 -0.85 -0.64 -0.89 -0.59 -0.95 -0.56 -0.99 -0.5 -1.05 -0.46 -1.09 -0.4 -1.13 -0.35 -1.18 -0.29 -1.22 -0.23 -1.26 -0.16 -1.3 -0.1 -1.34 -0.04 0.01 -8.74 1.53 0.04 1.5 0.12 1.47 0.19 1.43 0.27 1.39 0.34 1.36 0.42 1.31 0.48 1.28 0.56 1.23 0.63 1.2 0.69 1.14 0.76 1.1 0.84 1.05 0.89 1 0.97 0.95 1.03 0.9 1.1 0.84 1.16 0.78 1.23 0.71 1.29 0.65 1.36 0.58 1.42 0.51 1.47 0.43 1.54 0.35 1.57 0.26 1.63 0.18 1.66 0.09 1.68 0 1.71 -0.09 1.73 -0.19 1.73 -0.27 1.74 -0.36 1.74 0 0zm-19.99 59.59l14.56 -62.49 5.43 2.9 -14.56 62.5 -5.43 -2.91zm-32.02 34l0.01 -8.75 0 0 1.35 -0.03 1.36 -0.1 1.36 -0.17 1.35 -0.24 1.34 -0.29 1.34 -0.36 1.33 -0.42 1.31 -0.47 1.3 -0.54 1.27 -0.58 1.26 -0.64 1.24 -0.69 1.2 -0.74 1.18 -0.78 1.15 -0.83 1.12 -0.87 1.08 -0.92 1.04 -0.94 1.01 -0.99 0.96 -1.01 0.91 -1.05 0.87 -1.07 0.82 -1.1 0.77 -1.11 0.71 -1.14 0.66 -1.15 0.6 -1.16 0.54 -1.17 0.49 -1.17 0.42 -1.17 0.37 -1.18 0.3 -1.17 5.43 2.91 -0.44 1.72 -0.52 1.67 -0.6 1.64 -0.65 1.59 -0.73 1.56 -0.78 1.5 -0.84 1.47 -0.89 1.42 -0.95 1.38 -0.99 1.33 -1.04 1.29 -1.09 1.24 -1.13 1.19 -1.17 1.15 -1.21 1.1 -1.24 1.04 -1.28 1 -1.31 0.95 -1.34 0.89 -1.37 0.84 -1.4 0.78 -1.41 0.72 -1.45 0.66 -1.46 0.6 -1.48 0.53 -1.49 0.47 -1.51 0.41 -1.52 0.33 -1.53 0.27 -1.54 0.19 -1.54 0.12 -1.55 0.04 0 0zm-386.18 -8.75l386.19 0 -0.01 8.75 -386.19 0 0 0 0.01 -8.75zm-24.32 -25.25l5.43 2.91 0 0 -0.24 1.15 -0.18 1.11 -0.11 1.08 -0.05 1.04 -0.01 1.01 0.06 0.98 0.1 0.95 0.15 0.94 0.2 0.91 0.26 0.9 0.3 0.88 0.35 0.87 0.41 0.85 0.47 0.84 0.52 0.82 0.57 0.79 0.63 0.77 0.68 0.75 0.74 0.71 0.79 0.67 0.84 0.64 0.9 0.6 0.95 0.55 0.99 0.51 1.05 0.45 1.09 0.4 1.13 0.35 1.18 0.29 1.22 0.23 1.26 0.17 1.3 0.1 1.34 0.03 -0.01 8.75 -1.53 -0.04 -1.5 -0.12 -1.47 -0.19 -1.43 -0.27 -1.39 -0.35 -1.36 -0.41 -1.31 -0.49 -1.28 -0.55 -1.23 -0.63 -1.2 -0.7 -1.14 -0.76 -1.1 -0.83 -1.05 -0.9 -1 -0.96 -0.95 -1.03 -0.9 -1.1 -0.84 -1.17 -0.78 -1.23 -0.71 -1.29 -0.65 -1.36 -0.58 -1.41 -0.51 -1.48 -0.43 -1.53 -0.35 -1.58 -0.26 -1.62 -0.18 -1.66 -0.09 -1.69 0 -1.71 0.09 -1.73 0.19 -1.73 0.27 -1.74 0.36 -1.74 0 0zm19.99 -59.59l-14.56 62.5 -5.43 -2.91 14.56 -62.49 0 0 5.43 2.9zm32.02 -33.99l-0.01 8.74 0 0 -1.35 0.04 -1.36 0.1 -1.36 0.17 -1.35 0.23 -1.34 0.3 -1.34 0.36 -1.33 0.41 -1.31 0.48 -1.3 0.53 -1.28 0.59 -1.25 0.64 -1.24 0.69 -1.2 0.74 -1.18 0.78 -1.15 0.83 -1.12 0.87 -1.08 0.91 -1.04 0.95 -1.01 0.98 -0.96 1.02 -0.91 1.04 -0.87 1.07 -0.82 1.1 -0.77 1.12 -0.71 1.13 -0.66 1.15 -0.6 1.16 -0.54 1.17 -0.49 1.17 -0.42 1.18 -0.37 1.17 -0.3 1.17 -5.43 -2.9 0.45 -1.72 0.52 -1.68 0.59 -1.64 0.65 -1.59 0.73 -1.55 0.78 -1.51 0.84 -1.46 0.89 -1.42 0.95 -1.38 0.99 -1.33 1.04 -1.29 1.09 -1.24 1.13 -1.2 1.17 -1.14 1.21 -1.1 1.24 -1.05 1.28 -1 1.31 -0.94 1.34 -0.89 1.37 -0.84 1.4 -0.78 1.41 -0.72 1.45 -0.66 1.46 -0.6 1.48 -0.54 1.49 -0.47 1.51 -0.4 1.52 -0.34 1.53 -0.26 1.54 -0.19 1.54 -0.12 1.55 -0.04 0 0z"/>
  </g>
  <path class="fil2" d="M161.79 90.74l-8.11 -15.46c-0.81,-1.55 -1.58,-2.82 -2.34,-3.84 -0.74,-1.04 -1.53,-1.86 -2.32,-2.48 -0.8,-0.6 -1.66,-1.05 -2.57,-1.31 -0.92,-0.27 -1.94,-0.4 -3.07,-0.4l-5.93 0 0 23.49 -5 0 0 -53.91 15.52 0c2.02,0 3.99,0.3 5.89,0.9 1.89,0.6 3.57,1.49 5.04,2.67 1.48,1.18 2.67,2.66 3.56,4.43 0.88,1.78 1.33,3.85 1.33,6.2 0,1.9 -0.28,3.66 -0.86,5.26 -0.57,1.59 -1.4,3.02 -2.46,4.26 -1.07,1.23 -2.35,2.29 -3.86,3.15 -1.53,0.87 -3.24,1.51 -5.14,1.94l0 0.15c0.73,0.29 1.39,0.69 1.99,1.17 0.6,0.47 1.18,1.05 1.75,1.73 0.56,0.67 1.11,1.45 1.66,2.32 0.56,0.89 1.13,1.89 1.73,3.02l9.04 16.71 -5.85 0zm-24.34 -49.29l0 21.26 8.94 0c1.81,0 3.45,-0.26 4.95,-0.78 1.5,-0.53 2.79,-1.29 3.85,-2.26 1.07,-0.97 1.89,-2.15 2.48,-3.52 0.59,-1.37 0.89,-2.93 0.89,-4.65 0,-3.13 -1.01,-5.58 -3.02,-7.36 -2.02,-1.79 -4.93,-2.69 -8.74,-2.69l-9.35 0zm40.86 50.06c-1,0 -1.86,-0.34 -2.55,-1.05 -0.71,-0.69 -1.06,-1.55 -1.06,-2.55 0,-1.02 0.35,-1.89 1.03,-2.58 0.69,-0.71 1.55,-1.06 2.58,-1.06 0.5,0 0.96,0.09 1.4,0.29 0.44,0.19 0.82,0.43 1.14,0.74 0.34,0.32 0.59,0.69 0.8,1.14 0.19,0.47 0.29,0.95 0.29,1.47 0,0.5 -0.1,0.97 -0.29,1.41 -0.21,0.43 -0.46,0.82 -0.8,1.14 -0.32,0.32 -0.7,0.58 -1.14,0.77 -0.44,0.19 -0.9,0.28 -1.4,0.28zm30.83 -50.06l0 49.29 -5 0 0 -49.29 -15.56 0 0 -4.62 36.12 0 0 4.62 -15.56 0zm22.38 41.39c0.9,0.68 1.9,1.28 2.99,1.82 1.08,0.54 2.19,0.99 3.33,1.36 1.13,0.36 2.29,0.63 3.43,0.82 1.16,0.19 2.26,0.28 3.31,0.28 4.07,0 7.13,-0.78 9.16,-2.36 2.02,-1.58 3.04,-3.84 3.04,-6.79 0,-1.42 -0.25,-2.68 -0.72,-3.75 -0.48,-1.06 -1.21,-2.05 -2.21,-2.99 -1.01,-0.92 -2.27,-1.85 -3.8,-2.76 -1.53,-0.91 -3.34,-1.95 -5.41,-3.1 -2.3,-1.26 -4.28,-2.44 -5.92,-3.56 -1.65,-1.12 -2.98,-2.26 -4.02,-3.43 -1.04,-1.16 -1.81,-2.42 -2.3,-3.77 -0.49,-1.36 -0.73,-2.9 -0.73,-4.63 0,-2.19 0.46,-4.14 1.39,-5.87 0.93,-1.73 2.18,-3.21 3.76,-4.42 1.58,-1.22 3.43,-2.15 5.54,-2.81 2.12,-0.65 4.38,-0.97 6.78,-0.97 4.24,0 7.79,0.59 10.64,1.77l0 5.52c-3.18,-1.84 -6.9,-2.75 -11.19,-2.75 -1.61,0 -3.11,0.19 -4.53,0.58 -1.41,0.4 -2.65,0.96 -3.71,1.72 -1.07,0.76 -1.92,1.69 -2.52,2.81 -0.61,1.12 -0.92,2.41 -0.92,3.89 0,1.41 0.2,2.62 0.61,3.63 0.43,1.02 1.08,1.98 2.01,2.88 0.91,0.91 2.1,1.81 3.6,2.69 1.49,0.89 3.31,1.92 5.47,3.07 2.25,1.21 4.22,2.38 5.89,3.52 1.68,1.14 3.08,2.33 4.2,3.57 1.12,1.24 1.95,2.56 2.5,3.95 0.56,1.4 0.83,2.94 0.83,4.65 0,2.36 -0.44,4.42 -1.31,6.22 -0.89,1.8 -2.11,3.29 -3.69,4.47 -1.58,1.17 -3.45,2.07 -5.63,2.67 -2.19,0.6 -4.57,0.9 -7.18,0.9 -0.85,0 -1.86,-0.07 -3.04,-0.21 -1.18,-0.14 -2.36,-0.34 -3.57,-0.6 -1.21,-0.27 -2.35,-0.59 -3.44,-0.95 -1.09,-0.37 -1.96,-0.77 -2.64,-1.2l0 -5.87zm46.68 7.9l-5 0 0 -53.91 5 0 0 53.91zm53.68 -3.74c-5.54,3.11 -11.42,4.67 -17.62,4.67 -3.92,0 -7.43,-0.67 -10.55,-2.02 -3.11,-1.33 -5.77,-3.21 -7.95,-5.59 -2.18,-2.4 -3.86,-5.25 -5.03,-8.58 -1.17,-3.32 -1.75,-6.97 -1.75,-10.96 0,-2.63 0.29,-5.16 0.85,-7.6 0.57,-2.43 1.4,-4.71 2.49,-6.84 1.09,-2.13 2.43,-4.06 4.01,-5.79 1.59,-1.73 3.4,-3.22 5.44,-4.47 2.05,-1.26 4.31,-2.22 6.76,-2.9 2.47,-0.68 5.12,-1.01 7.96,-1.01 5.34,0 10.12,0.95 14.31,2.85l0 5.52c-4.62,-2.56 -9.59,-3.83 -14.91,-3.83 -3.3,0 -6.27,0.6 -8.94,1.81 -2.65,1.19 -4.93,2.85 -6.8,4.96 -1.86,2.1 -3.31,4.59 -4.35,7.47 -1.03,2.87 -1.55,5.98 -1.58,9.34 -0.03,3.34 0.41,6.42 1.3,9.23 0.9,2.82 2.22,5.26 3.98,7.32 1.75,2.05 3.92,3.66 6.5,4.81 2.6,1.16 5.59,1.73 8.98,1.73 4.57,0 8.53,-0.95 11.9,-2.86l0 -16.47 -12.25 0 0 -4.54 17.25 0 0 23.75z"/>
 </g>
</svg>
