<?xml version="1.0" encoding="UTF-8"?>
<!DOCTYPE svg PUBLIC "-//W3C//DTD SVG 1.1//EN" "http://www.w3.org/Graphics/SVG/1.1/DTD/svg11.dtd">
<!-- Creator: CorelDRAW -->
<svg xmlns="http://www.w3.org/2000/svg" xml:space="preserve" width="889px" height="244px" version="1.1" style="shape-rendering:geometricPrecision; text-rendering:geometricPrecision; image-rendering:optimizeQuality; fill-rule:evenodd; clip-rule:evenodd"
viewBox="0 0 3292.8 904.7"
 xmlns:xlink="http://www.w3.org/1999/xlink"
 xmlns:xodm="http://www.corel.com/coreldraw/odm/2003">
 <defs>
  <style type="text/css">
   <![CDATA[
    .str0 {stroke:black;stroke-width:7.4;stroke-miterlimit:22.9256}
    .fil0 {fill:white}
    .fil2 {fill:black;fill-rule:nonzero}
    .fil1 {fill:black;fill-rule:nonzero}
   ]]>
  </style>
 </defs>
 <g id="Capa_x0020_1">
  <metadata id="CorelCorpID_0Corel-Layer"/>
  <g>
   <path class="fil0" d="M375.27 31l2738.65 0c109.86,0 178.8,89.88 153.2,199.74l-103.28 443.21c-25.6,109.87 -136.44,199.75 -246.3,199.75l-2738.65 0c-109.86,0 -178.81,-89.88 -153.2,-199.75l103.28 -443.21c25.6,-109.86 136.43,-199.74 246.3,-199.74z"/>
   <path id="_1" class="fil1" d="M3113.89 62l-2738.65 0 0.05 -62 2738.65 0 0 0 -0.05 62zm172.48 179.05l-38.5 -20.61 0 0 1.7 -8.15 1.23 -7.89 0.8 -7.63 0.39 -7.38 0.01 -7.17 -0.37 -6.95 -0.72 -6.77 -1.08 -6.61 -1.44 -6.49 -1.79 -6.36 -2.15 -6.27 -2.52 -6.16 -2.9 -6.04 -3.29 -5.93 -3.67 -5.79 -4.07 -5.65 -4.45 -5.46 -4.85 -5.27 -5.24 -5.04 -5.61 -4.79 -5.99 -4.53 -6.36 -4.24 -6.71 -3.92 -7.07 -3.59 -7.39 -3.22 -7.74 -2.85 -8.05 -2.47 -8.35 -2.06 -8.66 -1.62 -8.94 -1.18 -9.21 -0.72 -9.49 -0.24 0.05 -62 10.88 0.28 10.64 0.83 10.39 1.37 10.15 1.91 9.89 2.43 9.61 2.94 9.33 3.44 9.06 3.95 8.75 4.45 8.44 4.93 8.12 5.41 7.8 5.89 7.45 6.37 7.1 6.84 6.74 7.32 6.35 7.79 5.94 8.25 5.53 8.72 5.08 9.17 4.62 9.63 4.11 10.05 3.6 10.46 3.05 10.86 2.47 11.19 1.88 11.51 1.26 11.77 0.62 11.97 0 12.11 -0.65 12.26 -1.3 12.3 -1.92 12.32 -2.56 12.33 0 0zm-141.78 422.6l103.28 -443.21 38.5 20.61 -103.28 443.2 -38.5 -20.6zm-227.08 241.05l0.05 -62 0 0 9.63 -0.24 9.63 -0.73 9.61 -1.19 9.59 -1.65 9.54 -2.11 9.49 -2.54 9.4 -2.96 9.31 -3.38 9.19 -3.77 9.07 -4.16 8.91 -4.54 8.75 -4.89 8.57 -5.23 8.37 -5.56 8.15 -5.88 7.91 -6.18 7.67 -6.46 7.4 -6.72 7.11 -6.97 6.8 -7.2 6.49 -7.42 6.16 -7.6 5.81 -7.78 5.44 -7.91 5.07 -8.05 4.67 -8.16 4.26 -8.22 3.86 -8.29 3.44 -8.32 3.01 -8.32 2.57 -8.31 2.15 -8.31 38.5 20.6 -3.15 12.18 -3.68 11.9 -4.19 11.61 -4.67 11.3 -5.12 11 -5.54 10.7 -5.96 10.38 -6.34 10.08 -6.7 9.76 -7.06 9.45 -7.39 9.12 -7.71 8.81 -8 8.47 -8.3 8.13 -8.57 7.79 -8.82 7.43 -9.06 7.08 -9.3 6.7 -9.51 6.33 -9.71 5.92 -9.89 5.54 -10.06 5.11 -10.22 4.69 -10.36 4.26 -10.49 3.8 -10.6 3.34 -10.7 2.86 -10.79 2.38 -10.85 1.87 -10.91 1.36 -10.96 0.82 -10.97 0.28 0 0zm-2738.59 -62l2738.64 0 -0.05 62 -2738.65 0 0 0 0.06 -62zm-172.48 -179.05l38.5 20.6 0 0 -1.7 8.16 -1.23 7.89 -0.8 7.63 -0.39 7.38 -0.01 7.17 0.37 6.94 0.72 6.78 1.08 6.61 1.44 6.49 1.79 6.37 2.15 6.26 2.52 6.16 2.9 6.05 3.29 5.93 3.67 5.79 4.06 5.64 4.46 5.46 4.85 5.27 5.23 5.04 5.62 4.8 5.99 4.53 6.36 4.23 6.71 3.92 7.06 3.59 7.4 3.23 7.73 2.85 8.06 2.46 8.35 2.06 8.66 1.62 8.94 1.18 9.21 0.72 9.49 0.24 -0.06 62 -10.87 -0.28 -10.64 -0.83 -10.39 -1.37 -10.15 -1.9 -9.89 -2.43 -9.61 -2.94 -9.33 -3.45 -9.06 -3.95 -8.75 -4.44 -8.44 -4.93 -8.13 -5.42 -7.79 -5.89 -7.45 -6.36 -7.11 -6.85 -6.73 -7.32 -6.35 -7.78 -5.95 -8.26 -5.52 -8.72 -5.08 -9.17 -4.61 -9.62 -4.13 -10.06 -3.6 -10.48 -3.04 -10.84 -2.47 -11.2 -1.88 -11.51 -1.26 -11.76 -0.63 -11.97 0.01 -12.13 0.65 -12.24 1.29 -12.3 1.93 -12.33 2.56 -12.32 0 0zm141.78 -422.6l-103.28 443.2 -38.5 -20.6 103.28 -443.21 0 0 38.5 20.61zm227.07 -241.05l-0.05 62 0 0 -9.62 0.24 -9.63 0.73 -9.62 1.19 -9.58 1.66 -9.55 2.1 -9.48 2.54 -9.41 2.97 -9.3 3.37 -9.2 3.77 -9.06 4.16 -8.91 4.53 -8.75 4.9 -8.58 5.24 -8.36 5.55 -8.15 5.89 -7.92 6.17 -7.66 6.46 -7.4 6.72 -7.11 6.97 -6.81 7.21 -6.49 7.41 -6.16 7.6 -5.8 7.77 -5.44 7.92 -5.07 8.05 -4.67 8.15 -4.27 8.23 -3.85 8.28 -3.44 8.32 -3.01 8.33 -2.57 8.31 -2.15 8.31 -38.5 -20.61 3.14 -12.17 3.69 -11.9 4.19 -11.61 4.67 -11.3 5.12 -11 5.54 -10.7 5.96 -10.39 6.34 -10.07 6.7 -9.76 7.05 -9.45 7.4 -9.13 7.7 -8.79 8.01 -8.47 8.3 -8.14 8.56 -7.79 8.83 -7.43 9.06 -7.08 9.3 -6.7 9.51 -6.33 9.7 -5.92 9.89 -5.53 10.07 -5.12 10.22 -4.69 10.36 -4.25 10.48 -3.81 10.6 -3.33 10.7 -2.87 10.79 -2.38 10.85 -1.87 10.91 -1.36 10.96 -0.82 10.97 -0.28 0 0z"/>
  </g>
  <path class="fil2 str0" d="M1147.35 643.51l-57.53 -109.69c-5.74,-10.93 -11.2,-19.94 -16.57,-27.22 -5.28,-7.37 -10.83,-13.2 -16.48,-17.57 -5.64,-4.28 -11.74,-7.46 -18.2,-9.28 -6.55,-1.92 -13.75,-2.83 -21.76,-2.83l-42.05 0 0 166.59 -35.5 0 0 -382.32 110.05 0c14.38,0 28.31,2.09 41.78,6.37 13.38,4.28 25.3,10.56 35.77,18.93 10.47,8.38 18.94,18.85 25.22,31.41 6.28,12.65 9.46,27.31 9.46,43.97 0,13.47 -2,25.94 -6.09,37.32 -4.1,11.28 -9.92,21.39 -17.48,30.22 -7.56,8.74 -16.66,16.2 -27.4,22.3 -10.83,6.19 -22.94,10.74 -36.41,13.74l0 1.1c5.19,2.09 9.83,4.91 14.11,8.28 4.27,3.37 8.37,7.46 12.38,12.29 4,4.73 7.92,10.29 11.83,16.48 3.91,6.28 8.01,13.38 12.2,21.39l64.17 118.52 -41.5 0zm-172.59 -349.55l0 150.74 63.35 0c12.84,0 24.49,-1.82 35.14,-5.55 10.65,-3.73 19.75,-9.1 27.31,-16.02 7.55,-6.83 13.38,-15.2 17.57,-24.94 4.18,-9.74 6.28,-20.76 6.28,-32.96 0,-22.21 -7.11,-39.59 -21.4,-52.24 -14.29,-12.66 -34.95,-19.03 -61.99,-19.03l-66.26 0zm289.74 355.01c-7.1,0 -13.2,-2.46 -18.11,-7.47 -5.01,-4.91 -7.47,-11.01 -7.47,-18.11 0,-7.19 2.46,-13.38 7.28,-18.3 4.92,-5 11.02,-7.46 18.3,-7.46 3.55,0 6.83,0.63 9.92,2 3.1,1.37 5.83,3.09 8.11,5.28 2.36,2.27 4.18,4.92 5.64,8.1 1.36,3.28 2.09,6.74 2.09,10.38 0,3.55 -0.73,6.92 -2.09,10.01 -1.46,3.1 -3.28,5.83 -5.64,8.1 -2.28,2.28 -5.01,4.1 -8.11,5.46 -3.09,1.37 -6.37,2.01 -9.92,2.01zm218.64 -355.01l0 349.55 -35.5 0 0 -349.55 -110.32 0 0 -32.77 256.15 0 0 32.77 -110.33 0zm158.66 293.47c6.38,4.83 13.47,9.11 21.21,12.93 7.65,3.82 15.57,7.01 23.67,9.65 8.01,2.54 16.2,4.46 24.31,5.82 8.19,1.37 16.02,2.01 23.48,2.01 28.85,0 50.52,-5.56 64.9,-16.75 14.39,-11.2 21.58,-27.22 21.58,-48.16 0,-10.1 -1.73,-19.02 -5.1,-26.58 -3.37,-7.55 -8.56,-14.56 -15.66,-21.21 -7.19,-6.55 -16.11,-13.1 -26.94,-19.57 -10.83,-6.46 -23.67,-13.83 -38.41,-22.03 -16.3,-8.92 -30.32,-17.29 -41.97,-25.21 -11.65,-7.92 -21.12,-16.02 -28.49,-24.3 -7.37,-8.29 -12.84,-17.21 -16.29,-26.77 -3.46,-9.65 -5.19,-20.57 -5.19,-32.86 0,-15.47 3.27,-29.31 9.83,-41.6 6.64,-12.29 15.47,-22.75 26.67,-31.31 11.19,-8.65 24.3,-15.29 39.32,-19.93 15.02,-4.65 31.04,-6.92 48.06,-6.92 30.05,0 55.26,4.18 75.47,12.56l0 39.14c-22.58,-13.02 -48.98,-19.48 -79.38,-19.48 -11.38,0 -22.03,1.37 -32.13,4.09 -10.02,2.83 -18.75,6.84 -26.31,12.21 -7.56,5.36 -13.56,12.01 -17.84,19.93 -4.37,7.92 -6.56,17.11 -6.56,27.58 0,10.01 1.46,18.57 4.38,25.76 3,7.19 7.64,14.02 14.2,20.39 6.46,6.47 14.92,12.84 25.57,19.12 10.56,6.28 23.49,13.56 38.78,21.75 15.93,8.56 29.95,16.84 41.78,24.94 11.93,8.11 21.85,16.57 29.77,25.31 7.92,8.83 13.84,18.2 17.75,28.03 3.91,9.93 5.83,20.85 5.83,32.96 0,16.75 -3.1,31.4 -9.29,44.15 -6.28,12.74 -14.93,23.3 -26.12,31.67 -11.2,8.29 -24.49,14.66 -39.97,18.94 -15.47,4.28 -32.4,6.37 -50.88,6.37 -6.01,0 -13.2,-0.45 -21.57,-1.46 -8.38,-1 -16.75,-2.45 -25.31,-4.28 -8.55,-1.91 -16.66,-4.18 -24.39,-6.73 -7.74,-2.64 -13.93,-5.46 -18.76,-8.47l0 -41.69zm331.07 56.08l-35.5 0 0 -382.32 35.5 0 0 382.32zm380.67 -26.58c-39.32,22.12 -81.01,33.13 -124.98,33.13 -27.76,0 -52.7,-4.73 -74.82,-14.29 -22.03,-9.47 -40.87,-22.76 -56.35,-39.69 -15.47,-17.02 -27.4,-37.23 -35.68,-60.81 -8.28,-23.57 -12.38,-49.42 -12.38,-77.73 0,-18.66 2,-36.6 6.01,-53.89 4,-17.2 9.92,-33.41 17.66,-48.52 7.74,-15.11 17.2,-28.76 28.4,-41.05 11.28,-12.29 24.12,-22.85 38.59,-31.68 14.57,-8.92 30.59,-15.75 47.97,-20.57 17.48,-4.83 36.32,-7.19 56.44,-7.19 37.87,0 71.73,6.73 101.5,20.2l0 39.15c-32.77,-18.12 -68,-27.13 -105.78,-27.13 -23.39,0 -44.42,4.28 -63.35,12.84 -18.84,8.46 -34.96,20.2 -48.25,35.13 -13.2,14.93 -23.48,32.59 -30.86,52.98 -7.28,20.39 -11.01,42.42 -11.19,66.27 -0.19,23.66 2.91,45.51 9.19,65.45 6.38,20.02 15.75,37.32 28.22,51.88 12.47,14.57 27.85,25.94 46.15,34.14 18.39,8.19 39.6,12.29 63.63,12.29 32.41,0 60.53,-6.74 84.38,-20.3l0 -116.79 -86.84 0 0 -32.23 122.34 0 0 168.41z"/>
 </g>
</svg>
