<?xml version="1.0" encoding="UTF-8"?>
<!DOCTYPE svg PUBLIC "-//W3C//DTD SVG 1.1//EN" "http://www.w3.org/Graphics/SVG/1.1/DTD/svg11.dtd">
<!-- Creator: CorelDRAW -->
<svg xmlns="http://www.w3.org/2000/svg" xml:space="preserve" width="769px" height="244px" version="1.1" style="shape-rendering:geometricPrecision; text-rendering:geometricPrecision; image-rendering:optimizeQuality; fill-rule:evenodd; clip-rule:evenodd"
viewBox="0 0 318.92 101.33"
 xmlns:xlink="http://www.w3.org/1999/xlink"
 xmlns:xodm="http://www.corel.com/coreldraw/odm/2003">
 <defs>
  <style type="text/css">
   <![CDATA[
    .fil0 {fill:white}
    .fil2 {fill:black;fill-rule:nonzero}
    .fil1 {fill:black;fill-rule:nonzero}
   ]]>
  </style>
 </defs>
 <g id="Capa_x0020_1">
  <metadata id="CorelCorpID_0Corel-Layer"/>
  <g>
   <path class="fil0" d="M39.32 3.47l259.31 0c12.3,0 20.34,10.07 17.86,22.37l-10.01 49.64c-2.48,12.31 -14.57,22.38 -26.88,22.38l-259.31 0c-12.3,0 -20.34,-10.07 -17.86,-22.38l10.01 -49.64c2.48,-12.3 14.57,-22.37 26.88,-22.37z"/>
   <path id="_1" class="fil1" d="M298.62 6.94l-259.31 0 0.01 -6.94 259.31 0 0 0 -0.01 6.94zm19.73 20.06l-3.73 -2.31 0 0 0.16 -0.88 0.1 -0.84 0.06 -0.81 0.02 -0.78 -0.02 -0.76 -0.07 -0.74 -0.1 -0.73 -0.14 -0.72 -0.18 -0.72 -0.22 -0.71 -0.27 -0.71 -0.31 -0.71 -0.35 -0.69 -0.41 -0.69 -0.44 -0.67 -0.5 -0.66 -0.54 -0.64 -0.58 -0.61 -0.63 -0.59 -0.67 -0.55 -0.71 -0.53 -0.75 -0.49 -0.79 -0.45 -0.83 -0.42 -0.86 -0.37 -0.9 -0.33 -0.94 -0.28 -0.96 -0.24 -1 -0.18 -1.03 -0.14 -1.05 -0.08 -1.09 -0.03 0.01 -6.94 1.2 0.03 1.17 0.09 1.15 0.15 1.12 0.21 1.1 0.27 1.06 0.32 1.03 0.38 1.01 0.43 0.97 0.49 0.94 0.53 0.9 0.59 0.87 0.65 0.83 0.69 0.8 0.74 0.76 0.8 0.71 0.85 0.68 0.9 0.63 0.95 0.59 1 0.54 1.06 0.49 1.11 0.44 1.17 0.38 1.21 0.32 1.27 0.25 1.31 0.19 1.34 0.11 1.38 0.05 1.4 -0.03 1.41 -0.11 1.43 -0.18 1.42 -0.25 1.42 0 0zm-13.73 47.33l10 -49.64 3.73 2.31 -10 49.64 -3.73 -2.31zm-25.02 27l0 -6.95 0 0 1.1 -0.02 1.09 -0.09 1.09 -0.13 1.09 -0.19 1.07 -0.24 1.07 -0.29 1.06 -0.33 1.04 -0.39 1.03 -0.42 1.02 -0.48 0.99 -0.51 0.98 -0.55 0.95 -0.6 0.92 -0.63 0.91 -0.66 0.87 -0.7 0.84 -0.73 0.82 -0.76 0.77 -0.79 0.75 -0.81 0.7 -0.84 0.67 -0.85 0.62 -0.88 0.59 -0.89 0.53 -0.9 0.5 -0.91 0.44 -0.91 0.4 -0.92 0.35 -0.91 0.3 -0.92 0.25 -0.9 0.21 -0.9 3.73 2.31 -0.32 1.39 -0.38 1.36 -0.43 1.32 -0.49 1.29 -0.54 1.24 -0.59 1.2 -0.63 1.17 -0.67 1.13 -0.72 1.09 -0.75 1.05 -0.8 1.02 -0.82 0.98 -0.87 0.95 -0.89 0.9 -0.92 0.87 -0.96 0.82 -0.98 0.79 -1.01 0.74 -1.03 0.7 -1.06 0.66 -1.07 0.61 -1.1 0.57 -1.12 0.52 -1.13 0.47 -1.15 0.42 -1.16 0.37 -1.17 0.32 -1.18 0.26 -1.2 0.21 -1.2 0.15 -1.2 0.09 -1.21 0.03 0 0zm-259.31 -6.95l259.31 0 0 6.95 -259.31 0 0 0 0 -6.95zm-19.73 -20.05l3.73 2.31 0 0 -0.15 0.87 -0.11 0.85 -0.06 0.81 -0.01 0.78 0.02 0.76 0.06 0.74 0.1 0.73 0.15 0.72 0.18 0.72 0.22 0.71 0.26 0.71 0.32 0.7 0.35 0.7 0.4 0.69 0.45 0.67 0.5 0.66 0.53 0.63 0.59 0.62 0.63 0.58 0.67 0.56 0.71 0.53 0.75 0.49 0.79 0.45 0.83 0.42 0.86 0.37 0.9 0.33 0.94 0.28 0.96 0.23 1 0.19 1.02 0.14 1.06 0.08 1.08 0.02 0 6.95 -1.2 -0.03 -1.18 -0.09 -1.14 -0.15 -1.12 -0.21 -1.1 -0.27 -1.06 -0.32 -1.04 -0.38 -1 -0.43 -0.97 -0.49 -0.94 -0.53 -0.9 -0.6 -0.87 -0.64 -0.83 -0.69 -0.8 -0.74 -0.76 -0.8 -0.72 -0.85 -0.67 -0.9 -0.64 -0.95 -0.58 -1 -0.54 -1.06 -0.5 -1.11 -0.43 -1.17 -0.38 -1.22 -0.32 -1.26 -0.25 -1.31 -0.19 -1.34 -0.12 -1.38 -0.04 -1.4 0.03 -1.42 0.11 -1.42 0.17 -1.42 0.25 -1.42 0 0zm13.74 -47.33l-10.01 49.64 -3.73 -2.31 10.01 -49.64 0 0 3.73 2.31zm25.02 -27l-0.01 6.94 0 0 -1.09 0.03 -1.09 0.08 -1.1 0.14 -1.08 0.19 -1.08 0.24 -1.07 0.29 -1.05 0.33 -1.05 0.39 -1.03 0.42 -1.01 0.48 -0.99 0.51 -0.98 0.55 -0.95 0.6 -0.93 0.63 -0.9 0.66 -0.87 0.7 -0.85 0.73 -0.81 0.76 -0.78 0.79 -0.74 0.81 -0.7 0.84 -0.67 0.85 -0.62 0.87 -0.59 0.89 -0.54 0.9 -0.49 0.91 -0.44 0.92 -0.4 0.92 -0.35 0.91 -0.3 0.91 -0.26 0.91 -0.2 0.9 -3.73 -2.31 0.32 -1.4 0.37 -1.35 0.44 -1.33 0.49 -1.28 0.54 -1.24 0.58 -1.2 0.64 -1.17 0.67 -1.13 0.72 -1.09 0.75 -1.06 0.79 -1.01 0.83 -0.98 0.86 -0.95 0.9 -0.9 0.92 -0.87 0.96 -0.82 0.98 -0.79 1.01 -0.74 1.03 -0.7 1.05 -0.66 1.08 -0.61 1.1 -0.57 1.11 -0.52 1.14 -0.47 1.14 -0.42 1.17 -0.37 1.17 -0.32 1.18 -0.26 1.2 -0.21 1.2 -0.15 1.2 -0.09 1.21 -0.03 0 0z"/>
  </g>
  <path class="fil2" d="M103.56 72.04l-6.44 -12.28c-0.64,-1.23 -1.25,-2.23 -1.86,-3.05 -0.59,-0.83 -1.21,-1.48 -1.84,-1.97 -0.63,-0.48 -1.32,-0.83 -2.04,-1.04 -0.73,-0.21 -1.54,-0.31 -2.44,-0.31l-4.71 0 0 18.65 -3.97 0 0 -42.82 12.32 0c1.61,0 3.17,0.24 4.68,0.72 1.5,0.48 2.84,1.18 4.01,2.12 1.17,0.94 2.12,2.11 2.82,3.52 0.71,1.41 1.06,3.05 1.06,4.92 0,1.51 -0.22,2.91 -0.68,4.18 -0.46,1.26 -1.11,2.4 -1.96,3.38 -0.84,0.98 -1.86,1.82 -3.07,2.5 -1.21,0.7 -2.57,1.21 -4.07,1.54l0 0.12c0.58,0.24 1.1,0.55 1.58,0.93 0.48,0.38 0.93,0.84 1.38,1.38 0.45,0.53 0.89,1.15 1.33,1.84 0.44,0.71 0.9,1.5 1.36,2.4l7.19 13.27 -4.65 0zm-19.33 -39.15l0 16.89 7.1 0c1.44,0 2.74,-0.21 3.93,-0.62 1.2,-0.42 2.22,-1.02 3.06,-1.8 0.85,-0.76 1.5,-1.7 1.97,-2.79 0.47,-1.09 0.7,-2.33 0.7,-3.69 0,-2.49 -0.79,-4.44 -2.39,-5.86 -1.6,-1.41 -3.92,-2.13 -6.95,-2.13l-7.42 0zm32.45 39.77c-0.79,0 -1.47,-0.28 -2.02,-0.84 -0.56,-0.55 -0.84,-1.23 -0.84,-2.03 0,-0.8 0.28,-1.5 0.82,-2.05 0.55,-0.56 1.23,-0.83 2.04,-0.83 0.4,0 0.77,0.07 1.12,0.22 0.34,0.15 0.65,0.35 0.9,0.59 0.27,0.26 0.47,0.55 0.64,0.91 0.15,0.37 0.23,0.75 0.23,1.16 0,0.4 -0.08,0.78 -0.23,1.12 -0.17,0.35 -0.37,0.65 -0.64,0.91 -0.25,0.25 -0.56,0.46 -0.9,0.61 -0.35,0.15 -0.72,0.23 -1.12,0.23zm24.49 -39.77l0 39.15 -3.97 0 0 -39.15 -12.36 0 0 -3.67 28.69 0 0 3.67 -12.36 0zm17.77 32.87c0.72,0.54 1.51,1.02 2.38,1.45 0.86,0.43 1.74,0.79 2.65,1.08 0.9,0.29 1.81,0.5 2.72,0.65 0.92,0.16 1.8,0.23 2.63,0.23 3.23,0 5.66,-0.62 7.27,-1.88 1.61,-1.25 2.42,-3.05 2.42,-5.39 0,-1.13 -0.2,-2.13 -0.57,-2.98 -0.38,-0.84 -0.96,-1.63 -1.76,-2.37 -0.8,-0.74 -1.8,-1.47 -3.01,-2.19 -1.22,-0.73 -2.65,-1.55 -4.31,-2.47 -1.82,-1 -3.39,-1.94 -4.7,-2.83 -1.3,-0.88 -2.36,-1.79 -3.19,-2.72 -0.82,-0.93 -1.44,-1.93 -1.82,-3 -0.39,-1.08 -0.58,-2.3 -0.58,-3.68 0,-1.73 0.36,-3.28 1.1,-4.66 0.74,-1.37 1.73,-2.54 2.98,-3.5 1.26,-0.97 2.73,-1.72 4.41,-2.24 1.68,-0.52 3.48,-0.77 5.38,-0.77 3.37,0 6.19,0.47 8.45,1.41l0 4.38c-2.52,-1.46 -5.48,-2.18 -8.89,-2.18 -1.27,0 -2.46,0.15 -3.6,0.46 -1.12,0.31 -2.1,0.76 -2.94,1.36 -0.85,0.61 -1.52,1.35 -2,2.24 -0.49,0.88 -0.73,1.91 -0.73,3.09 0,1.12 0.16,2.08 0.49,2.88 0.33,0.81 0.85,1.57 1.59,2.28 0.72,0.73 1.67,1.44 2.86,2.15 1.18,0.7 2.63,1.51 4.34,2.43 1.79,0.96 3.36,1.89 4.68,2.8 1.34,0.9 2.45,1.85 3.34,2.83 0.88,0.99 1.55,2.04 1.99,3.14 0.43,1.11 0.65,2.33 0.65,3.69 0,1.88 -0.35,3.52 -1.04,4.95 -0.71,1.42 -1.67,2.61 -2.93,3.54 -1.25,0.93 -2.74,1.64 -4.47,2.12 -1.74,0.48 -3.63,0.72 -5.7,0.72 -0.68,0 -1.48,-0.05 -2.42,-0.17 -0.94,-0.11 -1.88,-0.27 -2.83,-0.47 -0.96,-0.22 -1.87,-0.47 -2.74,-0.76 -0.86,-0.29 -1.56,-0.61 -2.1,-0.95l0 -4.67zm37.08 6.28l-3.97 0 0 -42.82 3.97 0 0 42.82zm42.64 -2.97c-4.4,2.47 -9.07,3.71 -14,3.71 -3.11,0 -5.9,-0.53 -8.38,-1.6 -2.47,-1.06 -4.58,-2.55 -6.31,-4.45 -1.73,-1.9 -3.07,-4.17 -4,-6.81 -0.92,-2.64 -1.38,-5.53 -1.38,-8.71 0,-2.09 0.22,-4.09 0.67,-6.03 0.45,-1.93 1.11,-3.74 1.98,-5.43 0.87,-1.7 1.93,-3.23 3.18,-4.6 1.26,-1.38 2.7,-2.56 4.32,-3.55 1.63,-1 3.43,-1.76 5.37,-2.31 1.96,-0.54 4.07,-0.8 6.33,-0.8 4.24,0 8.03,0.75 11.36,2.26l0 4.39c-3.67,-2.03 -7.61,-3.04 -11.84,-3.04 -2.62,0 -4.98,0.48 -7.1,1.44 -2.11,0.94 -3.91,2.26 -5.4,3.93 -1.48,1.67 -2.63,3.65 -3.46,5.94 -0.81,2.28 -1.23,4.75 -1.25,7.42 -0.02,2.65 0.32,5.09 1.03,7.33 0.71,2.24 1.76,4.18 3.16,5.81 1.39,1.63 3.12,2.9 5.17,3.82 2.06,0.92 4.43,1.38 7.12,1.38 3.63,0 6.78,-0.76 9.45,-2.27l0 -13.09 -9.72 0 0 -3.6 13.7 0 0 18.86z"/>
 </g>
</svg>
