<?xml version="1.0" encoding="UTF-8"?>
<!DOCTYPE svg PUBLIC "-//W3C//DTD SVG 1.1//EN" "http://www.w3.org/Graphics/SVG/1.1/DTD/svg11.dtd">
<!-- Creator: CorelDRAW -->
<svg xmlns="http://www.w3.org/2000/svg" xml:space="preserve" width="610px" height="244px" version="1.1" style="shape-rendering:geometricPrecision; text-rendering:geometricPrecision; image-rendering:optimizeQuality; fill-rule:evenodd; clip-rule:evenodd"
viewBox="0 0 201.03 80.48"
 xmlns:xlink="http://www.w3.org/1999/xlink"
 xmlns:xodm="http://www.corel.com/coreldraw/odm/2003">
 <defs>
  <style type="text/css">
   <![CDATA[
    .fil0 {fill:white}
    .fil2 {fill:black;fill-rule:nonzero}
    .fil1 {fill:black;fill-rule:nonzero}
   ]]>
  </style>
 </defs>
 <g id="Capa_x0020_1">
  <metadata id="CorelCorpID_0Corel-Layer"/>
  <g>
   <path class="fil0" d="M28.4 2.76l156.23 0c9.78,0 16.49,7.99 14.93,17.77l-6.31 39.42c-1.57,9.78 -10.85,17.77 -20.62,17.77l-156.23 0c-9.77,0 -16.49,-7.99 -14.93,-17.77l6.32 -39.42c1.56,-9.78 10.84,-17.77 20.61,-17.77z"/>
   <path id="_1" class="fil1" d="M184.63 5.52l-156.23 0 0 -5.52 156.23 0 0 0 0 5.52zm16.1 15.92l-2.35 -1.83 0 0 0.09 -0.64 0.05 -0.6 0.01 -0.58 -0.01 -0.55 -0.04 -0.55 -0.06 -0.55 -0.1 -0.55 -0.14 -0.57 -0.17 -0.57 -0.2 -0.59 -0.25 -0.58 -0.28 -0.59 -0.33 -0.59 -0.36 -0.58 -0.4 -0.56 -0.44 -0.55 -0.47 -0.54 -0.51 -0.51 -0.54 -0.49 -0.58 -0.46 -0.6 -0.43 -0.64 -0.41 -0.66 -0.37 -0.7 -0.34 -0.72 -0.3 -0.74 -0.27 -0.77 -0.23 -0.8 -0.19 -0.81 -0.16 -0.84 -0.11 -0.86 -0.06 -0.88 -0.02 0 -5.52 0.94 0.02 0.92 0.08 0.9 0.11 0.87 0.17 0.86 0.2 0.84 0.25 0.81 0.29 0.79 0.34 0.77 0.37 0.74 0.42 0.71 0.45 0.69 0.49 0.66 0.54 0.63 0.57 0.61 0.6 0.57 0.65 0.54 0.68 0.51 0.73 0.48 0.77 0.45 0.8 0.41 0.86 0.38 0.9 0.33 0.95 0.3 0.99 0.24 1.05 0.2 1.09 0.14 1.14 0.09 1.17 0.02 1.19 -0.04 1.19 -0.1 1.2 -0.16 1.18 0 0zm-8.66 37.6l6.31 -39.43 2.35 1.83 -6.31 39.43 0 0 -2.35 -1.83zm-19.44 21.44l0 -5.51 0 0 0.89 -0.03 0.88 -0.06 0.88 -0.11 0.87 -0.15 0.86 -0.2 0.85 -0.23 0.85 -0.27 0.83 -0.31 0.81 -0.35 0.8 -0.38 0.79 -0.41 0.77 -0.45 0.74 -0.48 0.73 -0.5 0.7 -0.54 0.68 -0.56 0.66 -0.59 0.63 -0.62 0.6 -0.63 0.57 -0.65 0.54 -0.68 0.51 -0.68 0.47 -0.7 0.44 -0.72 0.4 -0.71 0.36 -0.73 0.32 -0.72 0.28 -0.72 0.24 -0.71 0.2 -0.7 0.17 -0.68 0.12 -0.66 2.35 1.83 -0.21 1.16 -0.27 1.11 -0.31 1.08 -0.35 1.04 -0.39 0.99 -0.43 0.96 -0.46 0.93 -0.5 0.89 -0.53 0.87 -0.56 0.83 -0.59 0.8 -0.62 0.77 -0.64 0.74 -0.67 0.71 -0.7 0.68 -0.72 0.64 -0.75 0.62 -0.76 0.58 -0.79 0.55 -0.8 0.52 -0.83 0.48 -0.84 0.44 -0.85 0.41 -0.88 0.37 -0.88 0.33 -0.9 0.29 -0.9 0.24 -0.92 0.21 -0.93 0.16 -0.93 0.12 -0.94 0.07 -0.94 0.02 0 0zm-156.23 -5.51l156.23 0 0 5.51 -156.23 0 0 0 0 -5.51zm-16.1 -15.93l2.35 1.83 0 0 -0.09 0.64 -0.05 0.6 -0.01 0.58 0.01 0.55 0.04 0.55 0.07 0.55 0.1 0.56 0.13 0.56 0.17 0.58 0.2 0.58 0.25 0.59 0.28 0.59 0.33 0.58 0.36 0.58 0.4 0.57 0.44 0.55 0.47 0.53 0.51 0.51 0.54 0.49 0.58 0.46 0.6 0.44 0.64 0.4 0.66 0.37 0.7 0.34 0.72 0.31 0.74 0.26 0.77 0.24 0.8 0.19 0.82 0.15 0.83 0.11 0.86 0.06 0.88 0.03 0 5.51 -0.94 -0.02 -0.92 -0.07 -0.9 -0.12 -0.87 -0.16 -0.86 -0.21 -0.84 -0.25 -0.81 -0.29 -0.79 -0.34 -0.77 -0.37 -0.74 -0.42 -0.71 -0.45 -0.69 -0.49 -0.66 -0.53 -0.63 -0.57 -0.6 -0.61 -0.58 -0.65 -0.54 -0.68 -0.51 -0.73 -0.48 -0.76 -0.45 -0.81 -0.41 -0.85 -0.38 -0.9 -0.33 -0.95 -0.3 -1 -0.24 -1.05 -0.2 -1.09 -0.14 -1.14 -0.09 -1.16 -0.02 -1.19 0.04 -1.2 0.1 -1.2 0.16 -1.18 0 0zm8.66 -37.6l-6.31 39.43 -2.35 -1.83 6.31 -39.43 0 0 2.35 1.83zm19.44 -21.44l0 5.52 0 0 -0.89 0.02 -0.88 0.06 -0.88 0.11 -0.87 0.16 -0.86 0.19 -0.85 0.23 -0.84 0.27 -0.83 0.31 -0.82 0.35 -0.8 0.38 -0.79 0.41 -0.76 0.45 -0.75 0.48 -0.73 0.51 -0.7 0.53 -0.68 0.57 -0.66 0.59 -0.63 0.61 -0.6 0.63 -0.57 0.66 -0.54 0.67 -0.51 0.69 -0.47 0.7 -0.43 0.71 -0.4 0.72 -0.37 0.72 -0.32 0.72 -0.28 0.72 -0.24 0.71 -0.2 0.7 -0.16 0.68 -0.13 0.66 -2.35 -1.83 0.21 -1.16 0.27 -1.11 0.31 -1.08 0.35 -1.03 0.39 -1 0.43 -0.96 0.46 -0.93 0.5 -0.89 0.53 -0.86 0.56 -0.84 0.59 -0.8 0.62 -0.77 0.64 -0.74 0.67 -0.71 0.7 -0.67 0.72 -0.65 0.75 -0.62 0.76 -0.58 0.79 -0.55 0.8 -0.51 0.83 -0.48 0.84 -0.45 0.86 -0.41 0.87 -0.36 0.88 -0.33 0.9 -0.29 0.9 -0.25 0.92 -0.21 0.93 -0.16 0.93 -0.12 0.94 -0.07 0.94 -0.02 0 0z"/>
  </g>
  <path class="fil2" d="M56.44 57.22l-5.11 -9.76c-0.51,-0.97 -1,-1.77 -1.48,-2.42 -0.47,-0.65 -0.96,-1.17 -1.46,-1.56 -0.51,-0.38 -1.05,-0.66 -1.62,-0.83 -0.59,-0.17 -1.23,-0.25 -1.94,-0.25l-3.74 0 0 14.82 -3.16 0 0 -34.01 9.79 0c1.28,0 2.52,0.19 3.72,0.57 1.19,0.38 2.25,0.94 3.18,1.68 0.93,0.75 1.69,1.68 2.24,2.8 0.56,1.12 0.85,2.43 0.85,3.91 0,1.2 -0.18,2.31 -0.55,3.32 -0.36,1 -0.88,1.9 -1.55,2.69 -0.67,0.77 -1.48,1.44 -2.44,1.98 -0.96,0.55 -2.04,0.96 -3.24,1.22l0 0.1c0.46,0.19 0.88,0.44 1.26,0.74 0.38,0.3 0.74,0.66 1.1,1.09 0.36,0.42 0.7,0.92 1.05,1.47 0.35,0.55 0.71,1.19 1.09,1.9l5.71 10.54 -3.7 0zm-15.35 -31.09l0 13.41 5.64 0c1.14,0 2.17,-0.17 3.12,-0.5 0.95,-0.33 1.76,-0.81 2.43,-1.42 0.67,-0.61 1.19,-1.36 1.56,-2.22 0.38,-0.87 0.56,-1.85 0.56,-2.93 0,-1.98 -0.63,-3.53 -1.9,-4.65 -1.27,-1.13 -3.11,-1.69 -5.52,-1.69l-5.89 0zm25.78 31.58c-0.64,0 -1.18,-0.22 -1.62,-0.67 -0.44,-0.43 -0.66,-0.98 -0.66,-1.61 0,-0.64 0.22,-1.19 0.65,-1.62 0.43,-0.45 0.98,-0.67 1.63,-0.67 0.31,0 0.6,0.06 0.88,0.18 0.27,0.12 0.52,0.27 0.72,0.47 0.21,0.2 0.37,0.44 0.5,0.72 0.12,0.29 0.19,0.6 0.19,0.92 0,0.32 -0.07,0.62 -0.19,0.89 -0.13,0.28 -0.29,0.52 -0.5,0.72 -0.2,0.21 -0.45,0.37 -0.72,0.49 -0.28,0.12 -0.57,0.18 -0.88,0.18zm19.45 -31.58l0 31.09 -3.16 0 0 -31.09 -9.82 0 0 -2.92 22.79 0 0 2.92 -9.81 0zm14.11 26.1c0.57,0.43 1.2,0.81 1.89,1.15 0.68,0.34 1.38,0.63 2.1,0.86 0.72,0.23 1.44,0.4 2.16,0.52 0.73,0.12 1.43,0.18 2.09,0.18 2.57,0 4.5,-0.5 5.78,-1.49 1.28,-1 1.92,-2.42 1.92,-4.29 0,-0.89 -0.16,-1.69 -0.46,-2.36 -0.3,-0.67 -0.76,-1.3 -1.39,-1.89 -0.64,-0.58 -1.43,-1.16 -2.4,-1.74 -0.96,-0.57 -2.1,-1.23 -3.41,-1.96 -1.45,-0.79 -2.7,-1.54 -3.74,-2.24 -1.03,-0.7 -1.88,-1.43 -2.53,-2.16 -0.66,-0.74 -1.14,-1.53 -1.45,-2.38 -0.31,-0.86 -0.46,-1.83 -0.46,-2.93 0,-1.37 0.29,-2.6 0.87,-3.7 0.59,-1.09 1.38,-2.02 2.37,-2.78 1,-0.77 2.17,-1.36 3.5,-1.78 1.34,-0.41 2.76,-0.61 4.28,-0.61 2.67,0 4.91,0.37 6.71,1.12l0 3.48c-2.01,-1.16 -4.35,-1.73 -7.06,-1.73 -1.01,0 -1.96,0.12 -2.86,0.36 -0.89,0.25 -1.67,0.61 -2.34,1.08 -0.67,0.48 -1.21,1.07 -1.59,1.78 -0.38,0.7 -0.58,1.52 -0.58,2.45 0,0.89 0.13,1.65 0.39,2.29 0.27,0.64 0.68,1.25 1.26,1.82 0.58,0.57 1.33,1.14 2.28,1.7 0.94,0.56 2.09,1.2 3.45,1.93 1.42,0.76 2.66,1.5 3.72,2.22 1.06,0.72 1.94,1.48 2.64,2.25 0.71,0.79 1.23,1.62 1.58,2.5 0.35,0.88 0.52,1.85 0.52,2.93 0,1.49 -0.27,2.79 -0.83,3.93 -0.55,1.13 -1.32,2.07 -2.32,2.81 -1,0.74 -2.18,1.31 -3.55,1.69 -1.38,0.38 -2.89,0.57 -4.53,0.57 -0.54,0 -1.18,-0.05 -1.92,-0.13 -0.75,-0.09 -1.49,-0.22 -2.25,-0.39 -0.76,-0.17 -1.48,-0.37 -2.17,-0.59 -0.69,-0.24 -1.24,-0.49 -1.67,-0.76l0 -3.71zm29.45 4.99l-3.16 0 0 -34.01 3.16 0 0 34.01zm33.87 -2.36c-3.5,1.97 -7.21,2.95 -11.12,2.95 -2.47,0 -4.69,-0.43 -6.66,-1.28 -1.96,-0.84 -3.63,-2.02 -5.01,-3.53 -1.38,-1.51 -2.44,-3.31 -3.17,-5.41 -0.74,-2.09 -1.11,-4.39 -1.11,-6.91 0,-1.66 0.18,-3.26 0.54,-4.8 0.35,-1.53 0.88,-2.97 1.57,-4.31 0.69,-1.35 1.53,-2.56 2.53,-3.65 1,-1.1 2.14,-2.04 3.43,-2.82 1.29,-0.8 2.72,-1.4 4.27,-1.83 1.55,-0.43 3.23,-0.64 5.02,-0.64 3.37,0 6.38,0.6 9.03,1.8l0 3.48c-2.92,-1.61 -6.05,-2.41 -9.41,-2.41 -2.08,0 -3.95,0.38 -5.64,1.14 -1.68,0.75 -3.11,1.79 -4.29,3.12 -1.18,1.33 -2.09,2.9 -2.75,4.72 -0.64,1.81 -0.98,3.77 -0.99,5.89 -0.02,2.11 0.26,4.05 0.82,5.82 0.56,1.78 1.4,3.32 2.51,4.62 1.11,1.29 2.47,2.31 4.1,3.04 1.64,0.72 3.52,1.09 5.66,1.09 2.88,0 5.39,-0.6 7.51,-1.81l0 -10.39 -7.73 0 0 -2.86 10.89 0 0 14.98z"/>
 </g>
</svg>
